<?xml version="1.0" encoding="UTF-8" standalone="no"?>
<!DOCTYPE svg PUBLIC "-//W3C//DTD SVG 1.1//EN"
 "http://www.w3.org/Graphics/SVG/1.1/DTD/svg11.dtd">
<!-- Generated by graphviz version 2.44.0 (20200408.0750)
 -->
<!-- Title: G Pages: 1 -->
<svg width="169pt" height="158pt"
 viewBox="0.00 0.00 169.44 158.37" xmlns="http://www.w3.org/2000/svg" xmlns:xlink="http://www.w3.org/1999/xlink">
<g id="graph0" class="graph" transform="scale(1 1) rotate(0) translate(4 154.37)">
<title>G</title>
<polygon fill="white" stroke="transparent" points="-4,4 -4,-154.37 165.44,-154.37 165.44,4 -4,4"/>
<!-- udp -->
<g id="node1" class="node">
<title>udp</title>
<ellipse fill="none" stroke="black" cx="29.25" cy="-18" rx="27" ry="18"/>
<text text-anchor="middle" x="29.25" y="-14.3" font-family="Times,serif" font-size="14.00">udp</text>
</g>
<!-- nvim -->
<g id="node2" class="node">
<title>nvim</title>
<ellipse fill="none" stroke="black" cx="29.25" cy="-132.37" rx="29.5" ry="18"/>
<text text-anchor="middle" x="29.25" y="-128.67" font-family="Times,serif" font-size="14.00">nvim</text>
</g>
<!-- udp&#45;&gt;nvim -->
<g id="edge1" class="edge">
<title>udp&#45;&gt;nvim</title>
<path fill="none" stroke="black" d="M29.25,-36.12C29.25,-54.44 29.25,-83.01 29.25,-104.27"/>
<polygon fill="black" stroke="black" points="25.75,-104.33 29.25,-114.33 32.75,-104.33 25.75,-104.33"/>
</g>
<!-- sclang -->
<g id="node3" class="node">
<title>sclang</title>
<ellipse fill="none" stroke="black" cx="128.29" cy="-75.18" rx="33.29" ry="18"/>
<text text-anchor="middle" x="128.29" y="-71.48" font-family="Times,serif" font-size="14.00">sclang</text>
</g>
<!-- nvim&#45;&gt;sclang -->
<g id="edge2" class="edge">
<title>nvim&#45;&gt;sclang</title>
<path fill="none" stroke="black" d="M50.74,-119.96C64.12,-112.23 81.57,-102.16 96.53,-93.52"/>
<polygon fill="black" stroke="black" points="98.55,-96.4 105.47,-88.36 95.05,-90.33 98.55,-96.4"/>
</g>
<!-- sclang&#45;&gt;udp -->
<g id="edge3" class="edge">
<title>sclang&#45;&gt;udp</title>
<path fill="none" stroke="black" d="M105.32,-61.92C91.41,-53.89 73.52,-43.56 58.59,-34.94"/>
<polygon fill="black" stroke="black" points="60.15,-31.8 49.74,-29.83 56.65,-37.86 60.15,-31.8"/>
</g>
</g>
</svg>
